<svg xmlns="http://www.w3.org/2000/svg" viewBox="0 0 48 48" aria-hidden="true">
  <path fill="#FFC107" d="M43.611 20.083H42V20H24v8h11.303C33.654 32.657 29.206 36 24 36c-6.627 0-12-5.373-12-12S17.373 12 24 12c3.059 0 5.842 1.154 7.959 3.041l5.657-5.657C34.053 6.053 29.278 4 24 4C12.954 4 4 12.954 4 24s8.954 20 20 20s20-8.954 20-20c0-1.341-.138-2.65-.389-3.917Z"/>
  <path fill="#FF3D00" d="M6.306 14.691l6.571 4.819C14.655 15.108 18.961 12 24 12c3.059 0 5.842 1.154 7.959 3.041l5.657-5.657C34.053 6.053 29.278 4 24 4c-7.682 0-14.338 4.337-17.694 10.691Z"/>
  <path fill="#4CAF50" d="M24 44c5.177 0 9.86-1.977 13.409-5.192l-6.19-5.238C29.145 35.091 26.715 36 24 36c-5.185 0-9.625-3.332-11.283-7.946l-6.522 5.025C9.513 39.556 16.227 44 24 44Z"/>
  <path fill="#1976D2" d="M43.611 20.083H42V20H24v8h11.303c-.792 2.237-2.231 4.166-4.084 5.571l.003-.002l6.19 5.238C36.971 39.215 44 34 44 24c0-1.341-.138-2.65-.389-3.917Z"/>
</svg>
